<?xml version="1.0" encoding="utf-8"?>
<!-- Generator: Adobe Illustrator 24.0.2, SVG Export Plug-In . SVG Version: 6.00 Build 0)  -->
<svg version="1.1" id="Layer_1" xmlns="http://www.w3.org/2000/svg" xmlns:xlink="http://www.w3.org/1999/xlink" x="0px" y="0px"
	 viewBox="0 0 480 480" style="enable-background:new 0 0 480 480;" xml:space="preserve">
<style type="text/css">
	.st0{fill:#B388FF;}
	.st1{fill:#170B40;}
</style>
<path class="st0" d="M6,58C6,29.3,29.3,6,58,6h364c28.7,0,52,23.3,52,52v364c0,28.7-23.3,52-52,52H58c-28.7,0-52-23.3-52-52V58z"/>
<path class="st1" d="M45,45v390h390V45H45z"/>
<path class="st0" d="M203.4,291.5h-59.2l-11.3,37H97L158,149h31.3l61.3,179.5h-35.9L203.4,291.5z M153.3,261.6h41l-20.6-67.2
	L153.3,261.6z M319.9,331c-9.5,0-17.9-1.7-25.4-5.1c-7.5-3.4-13.8-8-19-13.8c-5.2-5.8-9.2-12.7-11.9-20.5
	c-2.7-7.9-4.1-16.3-4.1-25.2v-4.8c0-10.1,1.3-19.4,4-27.8c2.7-8.4,6.4-15.7,11.4-21.8c4.9-6.1,10.9-10.8,17.9-14.2
	c7-3.4,14.9-5.1,23.6-5.1c8.8,0,16.5,1.6,23.2,4.7s12.3,7.6,16.8,13.3c4.5,5.7,8,12.6,10.2,20.7c2.3,8.1,3.4,17,3.4,26.9v15.2h-77.6
	c0.5,4.4,1.6,8.3,3.2,11.8c1.6,3.5,3.7,6.6,6.2,9.1s5.5,4.5,8.8,5.9c3.4,1.4,7.2,2.1,11.4,2.1c5.9,0,11.4-1.2,16.4-3.6
	c5-2.4,9.3-6.2,12.9-11.3l16,19.6c-2,3-4.4,6-7.3,8.9s-6.4,5.4-10.4,7.7s-8.4,4.1-13.5,5.4C331.3,330.3,325.8,331,319.9,331z
	 M316.2,221.5c-3.5,0-6.6,0.7-9.3,2c-2.7,1.4-5,3.3-6.9,5.7c-1.9,2.4-3.5,5.3-4.7,8.7c-1.2,3.4-2.1,7.1-2.6,11.2H338v-2.8
	c-0.1-3.5-0.5-6.8-1.4-9.9c-0.9-3-2.2-5.7-3.9-7.9c-1.8-2.2-4-3.9-6.7-5.2C323.2,222.1,319.9,221.5,316.2,221.5z"/>
</svg>
