<?xml version="1.0" encoding="utf-8"?>
<!-- Generator: Adobe Illustrator 24.0.2, SVG Export Plug-In . SVG Version: 6.00 Build 0)  -->
<svg version="1.1" id="Layer_1" xmlns="http://www.w3.org/2000/svg" xmlns:xlink="http://www.w3.org/1999/xlink" x="0px" y="0px"
	 viewBox="0 0 480 480" style="enable-background:new 0 0 480 480;" xml:space="preserve">
<style type="text/css">
	.st0{fill:#FF3D00;}
	.st1{fill:#330808;}
</style>
<path class="st0" d="M5,57.2C5,28.4,28.4,5,57.2,5h365.6C451.6,5,475,28.4,475,57.2v365.6c0,28.8-23.4,52.2-52.2,52.2H57.2
	C28.4,475,5,451.6,5,422.8V57.2z"/>
<path class="st1" d="M44.2,44.2v391.7h391.7V44.2H44.2z"/>
<path class="st0" d="M201.5,294h-53.3l-10.4,37.4H96.4l60.5-182.8h35.8l60.9,182.8h-41.8L201.5,294z M156.7,263.2h36.2l-18.1-65.1
	L156.7,263.2z"/>
<path class="st0" d="M300.3,190.3l1,13.4c8.2-10.6,19-15.9,32.3-15.9c23.9,0,36.2,16.4,36.9,49.1v94.5H334v-91.8
	c0-7.7-1.2-13.3-3.5-16.8c-2.4-3.5-6.5-5.2-12.4-5.2c-6.6,0-11.8,3.3-15.4,9.9v103.9h-36.5V190.3H300.3z"/>
</svg>
