<?xml version="1.0" standalone="no"?>
<!DOCTYPE svg PUBLIC "-//W3C//DTD SVG 20010904//EN"
 "http://www.w3.org/TR/2001/REC-SVG-20010904/DTD/svg10.dtd">
<svg version="1.0" xmlns="http://www.w3.org/2000/svg"
 width="256.000000pt" height="256.000000pt" viewBox="0 0 256.000000 256.000000"
 preserveAspectRatio="xMidYMid meet">

<g transform="translate(0.000000,256.000000) scale(0.100000,-0.100000)"
fill="#000000" stroke="none">
<path d="M1620 2235 c-114 -33 -198 -103 -252 -213 -31 -62 -33 -74 -32 -162
0 -94 3 -104 183 -700 100 -333 193 -623 206 -645 79 -135 255 -216 402 -186
130 26 231 103 286 219 29 61 32 75 32 162 -1 94 -3 102 -183 699 -100 333
-193 624 -207 647 -37 63 -126 139 -193 164 -75 28 -172 34 -242 15z m171
-278 c71 -47 85 -134 32 -197 -75 -89 -220 -41 -230 77 -10 111 107 181 198
120z"/>
</g>
</svg>
